# xmcd
#
# Track frame offsets: 
#        150
#        17323
#        37574
#        61514
#        84427
#        112446
#        129276
#        149701
#        172044
#        207320
#        233983
#
# Disc length: 3583 seconds
#
# Revision: 0
# Processed by: cddbd v1.5.2PL0 Copyright (c) Steve Scherf et al.
# Submitted via: ExactAudioCopy v0.95b4
#
DISCID=8d0dfd0b
DTITLE=Craig Erickson - Big Highway
DYEAR=2007
DGENRE=Blues
TTITLE0=River Keeps On Rollin'
TTITLE1=Take Me Home
TTITLE2=Big Highway
TTITLE3=Matter Of Time
TTITLE4=In The Sky
TTITLE5=Through With You
TTITLE6=For Your Love
TTITLE7=Miracle
TTITLE8=Midnight Light
TTITLE9=Driverless Train
TTITLE10=Stratus
EXTD=
EXTT0=
EXTT1=
EXTT2=
EXTT3=
EXTT4=
EXTT5=
EXTT6=
EXTT7=
EXTT8=
EXTT9=
EXTT10=
PLAYORDER=
